<?xml version="1.0" standalone="no"?>
<!DOCTYPE svg PUBLIC "-//W3C//DTD SVG 20010904//EN"
 "http://www.w3.org/TR/2001/REC-SVG-20010904/DTD/svg10.dtd">
<svg version="1.0" xmlns="http://www.w3.org/2000/svg"
 width="800.000000pt" height="800.000000pt" viewBox="0 0 800.000000 800.000000"
 preserveAspectRatio="xMidYMid meet">
<metadata>
Created by potrace 1.14, written by Peter Selinger 2001-2017
</metadata>
<g transform="translate(0.000000,800.000000) scale(0.100000,-0.100000)"
fill="#000000" stroke="none">
<path d="M4100 5843 c0 -4 -60 -8 -133 -9 -121 0 -180 -5 -247 -19 -14 -3 -41
-8 -60 -11 -85 -14 -394 -115 -410 -134 -3 -3 -25 -16 -50 -28 -64 -30 -124
-66 -128 -74 -2 -5 -8 -8 -13 -8 -7 0 -97 -57 -109 -70 -3 -3 -25 -21 -50 -40
-24 -19 -52 -42 -62 -50 -38 -32 -208 -207 -229 -235 -13 -16 -26 -32 -30 -35
-13 -10 -43 -77 -55 -125 -20 -74 -17 -129 12 -221 20 -64 30 -83 47 -88 24
-6 83 25 79 43 -1 6 2 11 7 11 5 0 13 10 16 23 4 12 18 36 31 54 13 17 24 36
24 42 0 6 9 15 20 21 11 6 20 16 20 23 0 7 14 28 31 47 17 19 54 61 82 94 48
56 227 216 241 216 2 0 28 16 57 36 61 41 190 109 202 106 4 -1 7 3 7 10 0 6
3 8 7 5 3 -4 11 -3 17 2 24 20 242 87 308 95 21 2 41 7 45 9 32 20 384 24 488
7 62 -11 219 -47 245 -57 8 -3 24 -8 34 -10 11 -2 25 -8 33 -14 7 -6 13 -9 13
-5 0 4 18 -3 40 -14 22 -11 40 -17 40 -13 0 5 4 4 8 -2 4 -5 38 -26 77 -45 38
-19 98 -54 132 -77 35 -24 66 -43 69 -43 4 0 14 -8 23 -18 9 -9 39 -35 66 -57
47 -37 165 -152 165 -160 0 -2 10 -15 23 -29 56 -62 67 -76 67 -81 0 -3 15
-27 34 -53 19 -26 32 -52 28 -58 -4 -5 -27 -11 -52 -13 -25 -2 -47 -4 -50 -6
-3 -2 -24 -6 -47 -10 -46 -6 -148 -37 -203 -61 -80 -35 -213 -112 -257 -149
-7 -5 -18 -14 -25 -20 -36 -27 -137 -114 -169 -145 -63 -60 -243 -227 -274
-255 -16 -14 -55 -47 -85 -73 -30 -26 -65 -56 -77 -67 -25 -23 -19 -18 -133
-106 -190 -146 -341 -229 -532 -293 -239 -80 -505 -103 -707 -60 -69 14 -171
48 -171 56 0 4 -9 8 -20 8 -11 0 -20 5 -20 11 0 5 -4 8 -9 5 -9 -6 -146 81
-195 124 -62 54 -158 164 -150 172 3 3 -2 8 -11 11 -19 8 -19 3 -1 -36 23 -52
28 -70 32 -112 2 -22 6 -51 9 -65 3 -14 8 -41 11 -60 2 -19 7 -44 11 -55 3
-11 7 -29 8 -41 2 -11 22 -76 44 -145 48 -144 124 -303 193 -406 27 -40 48
-76 47 -79 0 -4 3 -10 8 -13 4 -3 26 -28 48 -56 72 -92 167 -191 250 -261 26
-21 52 -44 60 -51 33 -31 199 -143 211 -143 8 0 14 -4 14 -8 0 -5 16 -14 35
-22 19 -8 35 -17 35 -22 0 -4 5 -8 10 -8 6 0 39 -13 74 -30 57 -26 193 -80
199 -79 1 1 29 -7 62 -17 33 -10 62 -18 65 -19 12 -2 77 -15 100 -20 14 -3 43
-8 65 -11 22 -3 54 -8 70 -11 65 -12 337 -10 422 3 161 25 342 70 438 107 136
54 377 190 450 255 7 6 16 12 19 12 20 0 243 217 299 290 23 30 44 57 47 60 3
3 17 21 30 40 13 19 29 38 35 42 5 4 7 8 2 8 -4 0 8 21 26 48 42 59 142 259
152 301 3 17 10 31 14 31 4 0 8 6 8 13 0 6 3 22 7 34 7 21 2 20 -67 -17 -81
-44 -232 -99 -260 -94 -17 2 -49 -33 -81 -91 -45 -81 -149 -224 -163 -225 -7
0 -13 -4 -13 -9 0 -8 -117 -128 -152 -156 -7 -6 -33 -26 -58 -45 -25 -19 -47
-37 -50 -40 -20 -20 -132 -85 -220 -128 -228 -110 -417 -155 -657 -156 -51 -1
-93 -5 -93 -9 0 -5 -6 -5 -12 0 -7 4 -26 9 -43 10 -51 3 -130 12 -130 13 0 2
-21 6 -65 13 -20 4 -64 15 -98 26 -34 10 -62 17 -62 14 0 -3 -6 -1 -12 4 -7 6
-31 16 -53 23 -83 26 -304 141 -313 162 -2 4 -8 8 -14 8 -19 0 -134 95 -223
185 -99 99 -114 116 -165 190 -19 28 -38 52 -42 53 -5 2 -8 8 -8 12 0 5 -11
25 -24 45 -26 38 -109 204 -120 242 -10 32 8 36 56 14 176 -81 399 -105 618
-67 14 3 41 7 62 10 20 3 56 12 80 20 23 8 54 17 68 19 55 11 299 120 312 141
5 6 8 7 8 1 0 -7 3 -7 8 0 4 6 24 19 45 30 20 11 37 23 37 27 0 5 3 7 8 6 7
-2 114 66 179 114 17 13 41 30 53 38 12 8 30 22 40 30 10 8 28 22 41 30 12 8
31 23 41 33 10 9 21 17 24 17 7 0 88 63 92 73 2 4 10 7 17 7 7 0 15 4 17 9 2
4 59 49 128 99 69 50 130 96 136 101 7 5 15 7 18 4 3 -4 6 -2 6 3 0 6 19 21
43 34 23 13 44 26 47 29 7 8 39 26 143 79 115 58 163 61 261 19 21 -9 42 -17
46 -17 4 0 10 -7 14 -15 3 -8 12 -15 19 -15 14 0 83 -76 103 -114 31 -57 37
-81 39 -143 2 -66 -11 -129 -37 -174 -16 -29 -88 -112 -88 -102 0 4 -7 -3 -16
-15 -8 -12 -21 -22 -28 -22 -8 0 -19 -6 -26 -14 -17 -22 -158 -72 -255 -92
-128 -27 -462 -22 -516 6 -9 6 -35 13 -56 16 -21 3 -42 7 -48 7 -5 1 -13 6
-16 11 -4 5 -15 6 -25 2 -16 -6 -11 -12 29 -37 26 -16 53 -29 61 -29 8 0 17
-4 20 -9 6 -8 176 -78 211 -86 101 -23 168 -38 191 -42 16 -3 119 -6 229 -8
183 -3 269 4 383 29 37 8 208 86 257 117 25 16 48 29 50 29 23 0 205 193 205
218 0 6 4 12 9 14 17 6 70 127 91 204 24 91 25 217 3 301 -15 57 -48 129 -70
151 -7 7 -13 17 -13 22 0 16 -86 93 -152 137 -37 24 -67 47 -66 51 1 4 -6 24
-15 46 -9 21 -17 42 -17 47 0 5 -3 9 -8 9 -4 0 -13 14 -21 32 -13 29 -109 186
-121 198 -14 14 -70 90 -70 95 0 23 -299 296 -386 352 -10 7 -36 24 -57 38
-21 14 -75 44 -120 68 -231 122 -459 190 -717 213 -41 3 -78 8 -82 11 -5 2 -8
1 -8 -4z"/>
<path d="M2030 5062 c0 -6 -9 -13 -19 -17 -38 -12 -56 -89 -37 -160 10 -42 97
-169 197 -289 37 -45 99 -136 100 -150 7 -52 4 -95 -7 -117 -7 -14 -45 -59
-84 -99 -38 -40 -70 -80 -71 -89 0 -9 -2 -24 -4 -33 -2 -10 1 -18 6 -18 13 0
111 52 127 67 8 7 18 11 23 8 5 -4 9 -1 9 4 0 6 4 11 9 11 5 0 36 15 69 34 33
19 63 32 66 28 3 -3 6 0 6 7 0 7 5 9 10 6 6 -3 10 -2 10 3 0 5 8 12 18 16 9 3
33 15 52 26 46 28 114 64 120 65 5 0 67 35 100 56 8 5 28 15 44 23 l29 14 -24
13 c-38 21 -65 21 -147 3 -148 -34 -200 -15 -250 89 -37 76 -54 117 -57 137
-2 14 -46 138 -68 190 -6 14 -11 27 -12 30 -7 30 -52 94 -80 116 -38 28 -135
47 -135 26z m112 -72 c40 -49 4 -120 -60 -120 -57 0 -95 86 -54 123 16 15 52
24 81 22 8 -1 23 -12 33 -25z"/>
<path d="M2726 4320 c-61 -32 -113 -57 -117 -54 -4 2 -10 0 -14 -6 -3 -5 5
-21 19 -35 14 -14 22 -25 18 -25 -4 0 1 -5 11 -11 9 -5 17 -17 17 -24 0 -8 3
-14 8 -13 4 2 31 -21 60 -50 29 -28 57 -52 62 -52 6 0 10 -4 10 -10 0 -5 7
-10 15 -10 8 0 15 -5 15 -11 0 -5 5 -7 10 -4 6 3 10 1 10 -4 0 -11 68 -46 83
-43 4 1 7 -2 7 -8 0 -5 9 -10 21 -10 11 0 28 -4 37 -9 9 -5 33 -11 52 -14 52
-8 80 -18 80 -28 0 -13 -9 -14 -95 -5 -33 3 -61 10 -63 16 -2 5 -11 10 -20 10
-9 0 -30 7 -46 15 -15 8 -34 15 -41 15 -7 0 -18 7 -25 15 -7 8 -16 13 -20 10
-4 -3 -19 4 -33 15 -14 11 -30 20 -36 20 -6 0 -11 5 -11 10 0 6 -5 10 -10 10
-14 0 -24 9 -116 96 -40 39 -74 76 -74 83 0 6 -7 11 -16 11 -8 0 -13 -4 -10
-8 3 -5 -18 -20 -47 -33 -29 -13 -57 -29 -63 -34 -6 -6 -29 -19 -52 -29 -22
-10 -43 -24 -45 -31 -6 -14 22 -75 34 -75 5 0 9 -6 9 -14 0 -21 210 -230 210
-209 0 5 4 3 8 -3 22 -32 182 -96 282 -112 90 -15 316 -5 373 17 15 6 27 8 27
6 0 -3 22 4 49 15 27 10 52 16 55 13 3 -4 6 -1 6 5 0 7 7 12 16 12 18 0 185
76 194 88 3 4 19 14 35 22 30 15 86 50 95 61 3 3 28 21 55 40 28 18 52 36 55
39 3 3 30 25 60 50 49 40 111 97 219 200 20 19 41 37 46 40 6 3 9 8 8 12 -2 5
2 8 7 8 10 0 70 56 70 65 0 7 -104 -48 -112 -60 -4 -5 -11 -10 -15 -11 -4 0
-44 -18 -87 -39 -44 -20 -84 -38 -90 -39 -6 -1 -15 -4 -21 -7 -9 -6 -106 -39
-130 -45 -5 -2 -39 -10 -75 -20 -87 -22 -325 -27 -400 -8 -118 29 -233 77
-272 112 -10 8 -18 12 -18 9 0 -4 -8 0 -17 8 -34 27 -146 115 -147 115 0 -1
-50 -27 -110 -60z"/>
</g>
</svg>
